<?xml version="1.0" encoding="UTF-8"?>
<svg xmlns="http://www.w3.org/2000/svg" width="45" height="48" viewBox="0 0 45 48" fill="none">
  <path d="M20.08 0.960022H18.16C8.63201 0.960022 0.880005 8.71202 0.880005 18.24V47.04H20.08V41.28H37.36V30.72H44.7914L37.3581 17.9779C37.217 8.56994 29.5206 0.960022 20.08 0.960022ZM35.44 28.8V39.36H18.16V45.12H2.8V18.24C2.8 9.7709 9.69089 2.88002 18.16 2.88002H20.08C28.5491 2.88002 35.44 9.7709 35.44 18.24V18.5002L41.4486 28.8H35.44Z" fill="#20409B"></path>
  <path d="M19.12 4.80005C11.7088 4.80005 5.67999 10.8288 5.67999 18.24C5.67999 25.6512 11.7088 31.68 19.12 31.68C26.5312 31.68 32.56 25.6512 32.56 18.24C32.56 10.8288 26.5312 4.80005 19.12 4.80005ZM28.4579 11.52H24.88V8.27813C26.2893 9.09701 27.5075 10.2039 28.4579 11.52ZM22.96 29.088V19.2H24.0966C24.4941 20.3146 25.5501 21.12 26.8 21.12C28.3878 21.12 29.68 19.8279 29.68 18.24C29.68 16.6522 28.3878 15.36 26.8 15.36C25.5501 15.36 24.4941 16.1655 24.0966 17.28H21.04V29.5863C20.4141 29.6919 19.7757 29.76 19.12 29.76V21.12H16.0634C15.6659 20.0055 14.6099 19.2 13.36 19.2C11.7722 19.2 10.48 20.4922 10.48 22.08C10.48 23.6679 11.7722 24.96 13.36 24.96C14.6099 24.96 15.6659 24.1546 16.0634 23.04H17.2V29.5863C11.7606 28.6685 7.59999 23.9367 7.59999 18.24C7.59999 15.3293 8.69343 12.6759 10.48 10.6455V15.36H14.4966C14.8941 16.4746 15.9501 17.28 17.2 17.28C18.7878 17.28 20.08 15.9879 20.08 14.4C20.08 12.8122 18.7878 11.52 17.2 11.52C15.9501 11.52 14.8941 12.3255 14.4966 13.44H12.4V8.90213C14.2941 7.53509 16.6106 6.72005 19.12 6.72005C20.4678 6.72005 21.7571 6.96485 22.96 7.39205V13.44H29.5792C30.2531 14.9031 30.64 16.5255 30.64 18.24C30.64 23.2445 27.4269 27.5012 22.96 29.088ZM25.84 18.24C25.84 17.7101 26.2701 17.28 26.8 17.28C27.3299 17.28 27.76 17.7101 27.76 18.24C27.76 18.77 27.3299 19.2 26.8 19.2C26.2701 19.2 25.84 18.77 25.84 18.24ZM14.32 22.08C14.32 22.61 13.8899 23.04 13.36 23.04C12.8301 23.04 12.4 22.61 12.4 22.08C12.4 21.5501 12.8301 21.12 13.36 21.12C13.8899 21.12 14.32 21.5501 14.32 22.08ZM16.24 14.4C16.24 13.8701 16.6701 13.44 17.2 13.44C17.7299 13.44 18.16 13.8701 18.16 14.4C18.16 14.93 17.7299 15.36 17.2 15.36C16.6701 15.36 16.24 14.93 16.24 14.4Z" fill="#20409B"></path>
</svg>
