<svg xmlns="http://www.w3.org/2000/svg" width="44" height="48" fill="none"><path d="M22.008 48c-1.267 0-2.363-.455-3.26-1.35-.886-.887-1.335-1.979-1.335-3.245.002-.635.117-1.23.345-1.776L8.86 36.507a4.92 4.92 0 0 1-.402.448c-.882.892-1.974 1.347-3.241 1.348-1.265 0-2.36-.456-3.253-1.351-.886-.883-1.336-1.972-1.336-3.236 0-1.266.449-2.361 1.333-3.257.756-.748 1.65-1.184 2.666-1.304V18.859c-1.017-.121-1.911-.563-2.663-1.317C1.078 16.66.628 15.57.628 14.306c0-1.264.45-2.36 1.334-3.256a4.477 4.477 0 0 1 3.254-1.339c1.267 0 2.358.45 3.245 1.336.147.149.283.304.406.464l8.89-5.133a4.588 4.588 0 0 1-.344-1.768c0-1.264.449-2.357 1.334-3.25a4.5 4.5 0 0 1 3.26-1.346c1.269.003 2.36.455 3.247 1.343a4.44 4.44 0 0 1 1.343 3.252 4.534 4.534 0 0 1-.338 1.769l8.898 5.133a4.96 4.96 0 0 1 .403-.461c.9-.89 1.992-1.339 3.255-1.339 1.266 0 2.358.45 3.245 1.336.893.897 1.345 1.994 1.343 3.259.002 1.265-.45 2.354-1.346 3.239-.744.753-1.638 1.195-2.66 1.314v10.295c1.023.12 1.916.556 2.662 1.302.895.898 1.347 1.994 1.344 3.26.002 1.264-.45 2.354-1.346 3.238-.882.893-1.975 1.348-3.242 1.348-1.264 0-2.358-.455-3.253-1.35a4.899 4.899 0 0 1-.404-.458l-8.9 5.135c.226.548.34 1.143.338 1.778.002 1.264-.45 2.357-1.345 3.244-.883.893-1.975 1.348-3.243 1.349Zm-2.969-6.305c-.3.51-.446 1.07-.448 1.712 0 .954.324 1.743.99 2.41.678.675 1.471 1.004 2.427 1.005.954 0 1.742-.329 2.41-1.003.676-.67 1.002-1.459 1-2.413.002-.643-.142-1.202-.442-1.712a3.508 3.508 0 0 0-.555-.705c-.668-.668-1.457-.992-2.413-.993-.958 0-1.752.326-2.429.994a3.462 3.462 0 0 0-.536.699l-.004.006Zm3.558-2.843c1.018.12 1.91.556 2.655 1.302.148.146.285.3.41.459l8.901-5.135a4.56 4.56 0 0 1-.344-1.76 4.66 4.66 0 0 1 .347-1.786l-2.263-1.304c-.863.553-1.843.833-2.922.834h-6.784v7.39Zm-13.135-3.36 8.888 5.118c.12-.157.253-.309.396-.453.759-.749 1.654-1.185 2.673-1.305v-7.39l-6.678-.007-.111.007h-.186c-1.021-.024-1.944-.298-2.758-.813L9.46 31.937c.23.547.348 1.143.35 1.776a4.587 4.587 0 0 1-.35 1.78Zm26.382-.084.004.007c.144.248.328.485.548.704.675.676 1.466 1.005 2.419 1.006.954 0 1.742-.329 2.409-1.003.677-.67 1.002-1.454 1-2.405.003-.958-.324-1.751-.999-2.428-.666-.666-1.455-.99-2.41-.99h-.007c-.951.002-1.741.327-2.414.993a3.646 3.646 0 0 0-.548.705c-.3.514-.446 1.077-.449 1.72.003.634.149 1.189.447 1.691ZM5.216 30.3c-.954 0-1.746.325-2.42.993-.665.672-.99 1.467-.99 2.424 0 .952.324 1.738.99 2.403.676.676 1.467 1.005 2.42 1.006.954 0 1.742-.329 2.41-1.003.223-.221.407-.454.552-.696l.001-.002c.303-.509.452-1.068.454-1.71a3.268 3.268 0 0 0-.455-1.71h-.001l-.001-.002-.002-.003a3.493 3.493 0 0 0-.548-.711c-.665-.665-1.454-.989-2.41-.989Zm.59-1.144c1.017.12 1.908.556 2.655 1.302.147.148.282.303.405.463l1.836-1.063-.004-.003c-1.062-1.061-1.6-2.36-1.6-3.863 0-1.503.538-2.805 1.6-3.869.87-.868 1.9-1.386 3.068-1.545.008-.21.026-.42.053-.626l-4.958-2.854a4.946 4.946 0 0 1-.402.448c-.743.751-1.635 1.193-2.653 1.314v10.296Zm27.47.673 1.884 1.087c.122-.157.255-.31.4-.455.754-.747 1.645-1.183 2.658-1.304V18.858c-1.015-.122-1.906-.563-2.656-1.316a4.753 4.753 0 0 1-.395-.443l-4.438 2.555a3.866 3.866 0 0 1 .041 1.033c.928.235 1.76.716 2.48 1.434 1.064 1.065 1.603 2.367 1.602 3.87 0 1.49-.53 2.78-1.576 3.837Zm-21.204-.341c.7.515 1.48.775 2.387.797l.227-.006.039-.001 14.655.007c.967-.002 1.796-.269 2.531-.817a5.23 5.23 0 0 0 .506-.446c.846-.845 1.258-1.835 1.257-3.03 0-1.197-.41-2.19-1.257-3.037-.695-.694-1.483-1.092-2.408-1.217a.59.59 0 0 1-.489-.744c.06-.208.089-.433.088-.67 0-.276-.038-.535-.116-.772a2.263 2.263 0 0 0-.572-.896 2.255 2.255 0 0 0-1.67-.697 2.265 2.265 0 0 0-1.464.504.59.59 0 0 1-.882-.17 5.551 5.551 0 0 0-.892-1.172c-.64-.637-1.372-1.083-2.173-1.322l-.003-.001a5.442 5.442 0 0 0-1.581-.225h-.01c-1.478 0-2.704.508-3.75 1.551-.77.77-1.245 1.63-1.45 2.625 0 .008-.002.015-.004.023-.069.352-.104.726-.104 1.11a7.215 7.215 0 0 0 0 .228.589.589 0 0 1-.567.596c-1.11.042-2.039.45-2.84 1.25-.845.846-1.255 1.84-1.255 3.036 0 1.194.41 2.185 1.256 3.03a4.67 4.67 0 0 0 .541.466Zm-2.61-13.403 4.637 2.67c.312-.91.835-1.736 1.564-2.464 1.26-1.258 2.802-1.895 4.582-1.895.403.01.795.032 1.174.096V9.163c-1.02-.12-1.916-.558-2.67-1.31a4.776 4.776 0 0 1-.4-.456l-8.888 5.131c.23.548.348 1.142.35 1.776a4.582 4.582 0 0 1-.35 1.78Zm17.788.696a3.426 3.426 0 0 1 2.504 1.043c.22.22.407.457.558.711l4.256-2.45a4.565 4.565 0 0 1-.349-1.776 4.63 4.63 0 0 1 .346-1.778l-8.903-5.136a4.88 4.88 0 0 1-.412.461c-.742.75-1.634 1.189-2.653 1.308v5.649c.825.314 1.58.81 2.25 1.478.28.283.53.581.748.892a3.5 3.5 0 0 1 1.655-.402ZM5.216 10.89c-.954 0-1.746.325-2.42.992-.665.673-.99 1.468-.99 2.425 0 .952.324 1.738.99 2.402.676.677 1.467 1.006 2.42 1.006.954 0 1.742-.328 2.41-1.002.224-.223.408-.455.553-.698.304-.509.452-1.068.454-1.71a3.27 3.27 0 0 0-.454-1.707l-.005-.008a3.494 3.494 0 0 0-.548-.711c-.665-.665-1.455-.99-2.41-.99Zm30.639 5.13c.142.243.323.474.539.688.675.677 1.464 1.006 2.414 1.007.961 0 1.75-.329 2.415-1.003.678-.669 1.003-1.454 1.002-2.405v-.002c.001-.955-.326-1.749-1-2.425-.666-.666-1.455-.99-2.41-.99-.955 0-1.747.325-2.421.992-.215.218-.4.458-.545.707l-.002.005c-.3.511-.447 1.072-.45 1.714.003.64.151 1.2.454 1.705l.004.007ZM22.008 8.018h.009c.95 0 1.736-.326 2.4-.996a3.465 3.465 0 0 0 .56-.71c.299-.505.443-1.061.441-1.702.002-.955-.325-1.746-.998-2.42-.668-.669-1.457-.995-2.413-.998-.955.003-1.75.33-2.427 1-.664.671-.989 1.463-.989 2.417.002.64.149 1.198.448 1.702l.005.008c.142.248.324.485.54.703.672.67 1.463.996 2.416.996h.008Zm.009 20.573h-.02c-1.26 0-2.353-.452-3.248-1.343a4.727 4.727 0 0 1-.72-.94c-.405-.677-.614-1.456-.617-2.31a4.492 4.492 0 0 1 .613-2.304c.188-.33.432-.651.719-.945.904-.891 2-1.34 3.264-1.34 1.267 0 2.358.45 3.245 1.336.297.296.548.618.747.958.398.684.599 1.456.596 2.295a4.46 4.46 0 0 1-.604 2.307 4.8 4.8 0 0 1-.74.943c-.882.89-1.972 1.343-3.235 1.343Zm-.009-8.004c-.957 0-1.752.325-2.429.994-.21.214-.392.454-.535.704a3.293 3.293 0 0 0-.453 1.713c.002.644.15 1.206.454 1.713.147.254.327.49.541.707.67.668 1.461.994 2.413.994h.015c.954 0 1.74-.326 2.404-.996.224-.224.412-.462.56-.711.298-.505.442-1.064.44-1.707.002-.64-.14-1.195-.435-1.701a3.61 3.61 0 0 0-.564-.72c-.666-.666-1.455-.99-2.411-.99Z" fill="#20409B"/></svg>