<svg xmlns="http://www.w3.org/2000/svg" width="48" height="46" fill="none"><path d="M4.047 6.158c.089-.055 1.664-1.045 2.608-2.795.377.7.928 1.446 1.72 2.023a10.338 10.338 0 0 0-1.632 2.429 7.76 7.76 0 0 0-.2-.364.725.725 0 1 0-1.252.732 6.461 6.461 0 0 1 .762 1.98c.054.35.353.609.707.613h.01c.35 0 .65-.25.713-.596.47-2.604 2.513-4.373 2.532-4.39a.725.725 0 0 0-.165-1.212C7.804 3.638 7.326 1.034 7.32 1.01a.726.726 0 0 0-1.436.051C5.656 3.42 3.307 4.91 3.284 4.925a.725.725 0 0 0 .763 1.233ZM23.976 19.736c-.4 0-.725.324-.725.725v2.653a.725.725 0 0 0 1.45 0V20.46c0-.4-.324-.725-.725-.725Z" fill="#20409B"/><path d="m47.16 20.531-7.47-3.85c-.02-.013-.04-.026-.062-.038l-6.278-3.345a.725.725 0 0 0-.682 1.28l5.111 2.723-13.768 7.862-13.75-7.858 5.119-2.727a.725.725 0 0 0-.682-1.28l-6.173 3.29a.723.723 0 0 0-.159 1.325l14.187 8.1-6.052 3.234-13.82-8.033 3.403-1.754a.725.725 0 1 0-.665-1.289L.84 20.531a.725.725 0 0 0-.032 1.272l15.314 8.902a.726.726 0 0 0 .706.012l6.423-3.433v16.28L9.486 35.698V29.54a.725.725 0 0 0-1.45 0v6.577c0 .26.14.501.365.63l15.017 8.582a.723.723 0 0 0 .558.264l.048-.003.048.003a.723.723 0 0 0 .558-.264l15.017-8.582a.725.725 0 0 0 .365-.63v-6.481a.725.725 0 0 0-1.45 0v6.06l-13.764 7.867V26.399l14.501-8.287 6.02 3.102-13.82 8.034-3.474-1.858a.726.726 0 0 0-.684 1.28l3.83 2.047a.727.727 0 0 0 .707-.012l15.314-8.902a.725.725 0 0 0-.032-1.272Z" fill="#20409B"/><path d="M11.85 6.91c.005.023.01.045.017.068.006.022.011.044.02.065.007.022.018.043.028.065.01.02.02.041.033.06.011.02.025.037.038.055.016.021.031.041.049.06.005.006.009.013.015.018l11.412 11.487.013.011a.72.72 0 0 0 .093.076l.007.006a.72.72 0 0 0 .111.059l.015.007.003.002.021.006a.73.73 0 0 0 .087.026l.024.006c.005.002.01.002.016.003.04.007.081.011.122.011h.004a.727.727 0 0 0 .122-.011l.016-.003c.009-.001.016-.004.024-.006a.744.744 0 0 0 .086-.026l.022-.007.004-.002.014-.006a.72.72 0 0 0 .111-.06c.001 0 .002 0 .003-.002l.002-.001.003-.003a.744.744 0 0 0 .092-.075l.013-.011L35.903 7.3c.006-.005.01-.012.015-.018a.677.677 0 0 0 .049-.06c.013-.018.027-.036.038-.054.013-.02.023-.04.033-.062l.029-.064c.008-.021.013-.043.02-.065a.69.69 0 0 0 .015-.068.726.726 0 0 0-.01-.283l-.003-.027c-.004-.011-.01-.022-.013-.033a.705.705 0 0 0-.144-.253c-.008-.01-.014-.02-.023-.029L31.091 1.32a.726.726 0 0 0-.52-.22h-13.19a.726.726 0 0 0-.52.22l-4.817 4.965c-.009.009-.014.019-.023.028a.68.68 0 0 0-.144.253c-.004.012-.01.022-.013.034l-.004.027a.726.726 0 0 0-.016.214c.001.024.003.047.007.07Zm12.126 9.435-2.63-6.494h5.26l-2.63 6.494ZM17.688 2.55h12.576l3.747 3.862-3.688 1-1.998-3.804a.726.726 0 0 0-1.284.674l2.268 4.32a.725.725 0 0 0 .832.362l2.826-.766L26 15.209l2.354-5.811a.725.725 0 0 0-.672-.998H20.27a.725.725 0 0 0-.672.998l2.354 5.812-6.965-7.011 2.825.766a.725.725 0 0 0 .832-.362l2.268-4.32a.725.725 0 1 0-1.284-.674L17.63 7.414 13.94 6.413l3.747-3.862ZM38.055 11.134c.09-.055 1.665-1.045 2.608-2.795.377.7.928 1.446 1.72 2.023a10.337 10.337 0 0 0-1.632 2.429 7.931 7.931 0 0 0-.2-.364.725.725 0 1 0-1.251.732c.602 1.031.76 1.972.76 1.98.055.35.354.609.708.613h.01c.35 0 .65-.25.713-.596.47-2.604 2.513-4.373 2.532-4.39a.725.725 0 0 0-.165-1.212c-2.046-.94-2.524-3.544-2.528-3.568a.727.727 0 0 0-1.437.051c-.229 2.358-2.578 3.849-2.602 3.864a.725.725 0 0 0 .764 1.233Z" fill="#20409B"/></svg>