<svg xmlns="http://www.w3.org/2000/svg" width="48" height="48" fill="none"><path d="M44.25.75H3.75a3 3 0 0 0-3 3v40.5a3 3 0 0 0 3 3h40.5a3 3 0 0 0 3-3V3.75a3 3 0 0 0-3-3Z" stroke="#20409B" stroke-width="1.5" stroke-linejoin="round"/><path d="M38.25 8.25H9.75a1.5 1.5 0 0 0-1.5 1.5v28.5a1.5 1.5 0 0 0 1.5 1.5h28.5a1.5 1.5 0 0 0 1.5-1.5V9.75a1.5 1.5 0 0 0-1.5-1.5ZM24 8.25v-4.5M33 8.25v-4.5M15 8.25v-4.5M24 44.25v-4.5M33 44.25v-4.5M15 44.25v-4.5M44.25 24h-4.5M44.25 15h-4.5M44.25 33h-4.5M8.25 24h-4.5M8.25 15h-4.5M8.25 33h-4.5" stroke="#20409B" stroke-width="1.5" stroke-linejoin="round"/><path d="M35.25 12.75h-22.5v4.5h22.5v-4.5ZM12 21h1.5M15 21h1.5M21 21h15M35.25 24.75h-22.5v10.5h22.5v-10.5Z" stroke="#20409B" stroke-width="1.5" stroke-linejoin="round"/><path d="M15.75 35.25v-7.5h16.5v7.5M24 27.75v7.5" stroke="#20409B" stroke-width="1.5" stroke-linejoin="round"/></svg>