<svg xmlns="http://www.w3.org/2000/svg" width="46" height="46" fill="none"><path d="M5 3.5H3.5V5H5V3.5ZM8 3.5H6.5V5H8V3.5ZM11 3.5H9.5V5H11V3.5ZM38 3.5h-1.5V5H38V3.5ZM6.5 9.5h-3V11h3V9.5ZM6.5 14h-3v1.5h3V14ZM6.5 18.5h-3V20h3v-1.5ZM6.5 23h-3v1.5h3V23ZM6.5 27.5h-3V29h3v-1.5ZM18.5 9.5H11V11h7.5V9.5ZM18.5 12.5H11v6h7.5v-6ZM17 17h-4.5v-3H17v3ZM28.25 9.5h-7.5V11h7.5V9.5ZM20.75 18.5h7.5v-6h-7.5v6Zm1.5-4.5h4.5v3h-4.5v-3ZM38 9.5h-7.5V11H38V9.5ZM30.5 18.5H38v-6h-7.5v6ZM32 14h4.5v3H32v-3ZM18.5 20H11v6h7.5v-6ZM17 24.5h-4.5v-3H17v3ZM11 33.5h7.5v-6H11v6Zm1.5-4.5H17v3h-4.5v-3ZM25.287 33.433l1.494.134a7.534 7.534 0 0 1 5.423-6.535l-.408-1.443a9.042 9.042 0 0 0-6.51 7.844ZM34.933 41.72l.134 1.493a8.93 8.93 0 0 0 6.126-3.235l-1.157-.956a7.44 7.44 0 0 1-5.103 2.697ZM42.5 30.5h-6V32h6v-1.5ZM42.5 33.5h-6V35h6v-1.5ZM31.377 38.184l1.153-1.154-1.06-1.06-1.154 1.153A3.728 3.728 0 0 0 29 36.576V35h-1.5v1.575c-.47.097-.917.282-1.316.548L25.03 35.97l-1.06 1.06 1.153 1.154c-.266.4-.451.846-.547 1.316H23V41h1.576c.096.47.281.917.547 1.316L23.97 43.47l1.06 1.06 1.154-1.153c.4.266.846.451 1.316.547V45.5H29v-1.575c.47-.097.917-.282 1.316-.548l1.154 1.153 1.06-1.06-1.153-1.154c.266-.4.451-.846.547-1.316H33.5v-1.5h-1.576a3.728 3.728 0 0 0-.547-1.316ZM28.25 42.5a2.25 2.25 0 1 1 0-4.5 2.25 2.25 0 0 1 0 4.5Z" fill="#20409B"/><path d="M41.22 23.659A2.237 2.237 0 0 0 39.629 23H35.75a2.253 2.253 0 0 0-2.25 2.25v10.5A2.253 2.253 0 0 0 35.75 38h7.5a2.253 2.253 0 0 0 2.25-2.25v-6.879a2.234 2.234 0 0 0-.659-1.59l-3.621-3.622ZM41 25.561l1.94 1.939h-1.19a.75.75 0 0 1-.75-.75v-1.19Zm3 10.189a.75.75 0 0 1-.75.75h-7.5a.75.75 0 0 1-.75-.75v-10.5a.75.75 0 0 1 .75-.75h3.75v2.25A2.253 2.253 0 0 0 41.75 29H44v6.75Z" fill="#20409B"/><path d="M38 27.5h-1.5V29H38v-1.5ZM20.75 26h7.5v-6h-7.5v6Zm1.5-4.5h4.5v3h-4.5v-3ZM20.75 33.5h3V32h-1.5v-3h2.25v-1.5h-3.75v6Z" fill="#20409B"/><path d="M43.25 5H41V2.75A2.252 2.252 0 0 0 38.75.5h-36A2.253 2.253 0 0 0 .5 2.75v31.5a2.252 2.252 0 0 0 2.25 2.25H5v2.25A2.253 2.253 0 0 0 7.25 41H21.5v-1.5H7.25a.75.75 0 0 1-.75-.75V36.5H23V35H9.5V8h30v13.07H41V6.5h2.25a.751.751 0 0 1 .75.75V24.5h1.5V7.25A2.253 2.253 0 0 0 43.25 5ZM8 35H2.75a.75.75 0 0 1-.75-.75V8h6v27ZM39.5 6.5H2V2.75A.75.75 0 0 1 2.75 2h36a.751.751 0 0 1 .75.75V6.5Z" fill="#20409B"/><path d="M38 20h-7.5v1.5H38V20Z" fill="#20409B"/></svg>