<svg xmlns="http://www.w3.org/2000/svg" width="26" height="46" fill="none"><path fill="#20409B" fill-rule="evenodd" d="M22 46H4a4 4 0 0 1-4-4V4a4 4 0 0 1 4-4h18a4 4 0 0 1 4 4v38a4 4 0 0 1-4 4Zm2-42a2 2 0 0 0-2-2H4a2 2 0 0 0-2 2v4h22V4Zm0 6H2v26h22V10Zm0 28H2v4a2 2 0 0 0 2 2h18a2 2 0 0 0 2-2v-4Zm-11 5a2 2 0 1 1 .001-4.001A2 2 0 0 1 13 43ZM6 13h2a1 1 0 0 1 1 1v2a1 1 0 0 1-1 1H6a1 1 0 0 1-1-1v-2a1 1 0 0 1 1-1Zm0 7h2a1 1 0 0 1 1 1v2a1 1 0 0 1-1 1H6a1 1 0 0 1-1-1v-2a1 1 0 0 1 1-1Zm0 7h2a1 1 0 0 1 1 1v2a1 1 0 0 1-1 1H6a1 1 0 0 1-1-1v-2a1 1 0 0 1 1-1Zm6-14h2a1 1 0 0 1 1 1v2a1 1 0 0 1-1 1h-2a1 1 0 0 1-1-1v-2a1 1 0 0 1 1-1Zm0 7h2a1 1 0 0 1 1 1v2a1 1 0 0 1-1 1h-2a1 1 0 0 1-1-1v-2a1 1 0 0 1 1-1Zm0 7h2a1 1 0 0 1 1 1v2a1 1 0 0 1-1 1h-2a1 1 0 0 1-1-1v-2a1 1 0 0 1 1-1Zm6-14h2a1 1 0 0 1 1 1v2a1 1 0 0 1-1 1h-2a1 1 0 0 1-1-1v-2a1 1 0 0 1 1-1Zm0 7h2a1 1 0 0 1 1 1v2a1 1 0 0 1-1 1h-2a1 1 0 0 1-1-1v-2a1 1 0 0 1 1-1ZM10 4h6a1 1 0 1 1 0 2h-6a1 1 0 1 1 0-2Z" clip-rule="evenodd"/></svg>